<svg xmlns="http://www.w3.org/2000/svg" xmlns:xlink="http://www.w3.org/1999/xlink" width="208" height="30" viewBox="0 0 208 30">
    <defs>
        <path id="a" d="M0 .349V19.03h31.29V.35z"/>
        <path id="c" d="M0 30h207.965V.525H0z"/>
    </defs>
    <g fill="none" fill-rule="evenodd">
        <path fill="#6A4B9D" d="M9 19h5v-9H9zM18 19h5v-9h-5z"/>
        <g>
            <path fill="#FFC200" d="M26.566 7.387h-3.47c0-.803-.165-3.423-2.287-3.423h-10.33c-2.122 0-2.286 2.62-2.286 3.423H4.725c0-3.415 1.777-6.862 5.754-6.862h10.33c3.978 0 5.757 3.447 5.757 6.862z"/>
            <g transform="translate(0 9.23)">
                <mask id="b" fill="#fff">
                    <use xlink:href="#a"/>
                </mask>
                <path fill="#6A4B9D" d="M26.855.349c0 1.543-.148 4.374-.308 6.413-.225 2.327-.453 4.729-.975 6.73-1.156.574-5.19 1.144-9.927 1.144-4.737 0-8.77-.57-9.928-1.144-.52-2.001-.75-4.403-.971-6.73-.162-2.039-.31-4.87-.31-6.413H0c0 1.65.117 4.198.286 6.342.257 2.685.567 5.945 1.279 8.412.672 2.33 3.725 3.058 6.622 3.462 3.099.434 6.492.465 7.458.465.966 0 4.358-.031 7.457-.465 2.898-.404 5.952-1.132 6.622-3.462.713-2.467 1.025-5.727 1.282-8.412.169-2.144.284-4.692.284-6.342h-4.435z" mask="url(#b)"/>
            </g>
            <path fill="#5A5A5A" d="M54.295 15.968v8.257c0 .309-.253.56-.566.56h-2.924a.562.562 0 0 1-.564-.56v-8.257c0-1.669-.631-2.582-2.577-2.582-1.212 0-2.29.495-3.37 1.382v9.457c0 .309-.253.56-.564.56h-2.925a.562.562 0 0 1-.563-.56V4.567a.56.56 0 0 1 .563-.558h2.925c.31 0 .563.25.563.558v6.81c1.318-1.069 2.658-1.59 4.239-1.59 3.789 0 5.763 1.774 5.763 6.181M76.998 17.455c0-2.712-1.132-4.174-3.367-4.174-1.159 0-2.239.47-3.21 1.174v6c.971.703 2.051 1.2 3.21 1.2 2.235 0 3.367-1.46 3.367-4.2m4.212 0c0 5.217-2.843 7.772-6.738 7.772-1.527 0-2.842-.574-4.052-1.487v5.7c0 .308-.253.56-.565.56H66.93a.563.563 0 0 1-.562-.56V10.66c0-.31.253-.56.562-.56h2.926c.312 0 .565.25.565.56v.536c1.21-.938 2.525-1.512 4.052-1.512 3.895 0 6.738 2.582 6.738 7.772M88.331 15.499h5.632c-.195-1.796-1.06-2.598-2.706-2.598-1.477 0-2.534.69-2.926 2.598m4.079 6.364c1.202 0 2.262-.26 3.57-.836a.567.567 0 0 1 .765.327l.72 2.089a.559.559 0 0 1-.286.684c-1.648.814-3.216 1.1-5.295 1.1-5.184 0-7.946-3.181-7.946-7.798 0-5.06 3.21-7.746 7.157-7.746 4.131 0 6.79 2.424 6.79 7.277v1.031c0 .31-.254.56-.566.56H88.25c.267 1.876 1.345 3.312 4.159 3.312M110.109 10.355v2.475a.565.565 0 0 1-.552.56c-.396.012-.926.046-1.322.138-1.02.239-1.983.72-2.864 1.371v9.326c0 .309-.252.56-.564.56h-2.926a.56.56 0 0 1-.562-.56V10.66c0-.31.252-.559.562-.559h2.926a.56.56 0 0 1 .564.56v.848c1.133-.966 2.267-1.546 3.518-1.687.095-.011.375-.02.643-.025a.56.56 0 0 1 .577.56M58.777 10.124h2.926c.31 0 .562.25.562.558V24.25a.56.56 0 0 1-.562.559h-2.926a.562.562 0 0 1-.565-.559V10.682c0-.309.254-.558.565-.558M62.118 5.066a2.988 2.988 0 0 0-1.858-.63H60.218c-.69 0-1.336.221-1.857.63-.074.046-.137.187-.137.275v2.073c0 .089.063.23.137.276.52.408 1.167.63 1.857.63H60.26a2.99 2.99 0 0 0 1.858-.63c.075-.046.138-.187.138-.276V5.341c0-.088-.063-.23-.138-.275"/>
            <path fill="#818181" d="M139.781 12.663v12.119h-1.565v-5.388h-6.161v5.388h-1.565V12.663h1.565v5.324h6.161v-5.324z"/>
            <mask id="d" fill="#fff">
                <use xlink:href="#c"/>
            </mask>
            <path fill="#818181" d="M142.957 24.782h1.516V15.94h-1.516v8.84zm0-10.504h1.516v-2.414h-1.516v2.414zM153.859 20.369c0-2.142-.887-3.278-2.597-3.278-.87 0-1.677.4-2.37.99v4.59c.693.575 1.5.99 2.37.99 1.71 0 2.597-1.15 2.597-3.292m1.565 0c0 3.15-1.63 4.684-3.952 4.684-.936 0-1.823-.433-2.58-1.071v4.54h-1.517V15.94h1.517v.832c.757-.64 1.644-1.088 2.58-1.088 2.322 0 3.952 1.552 3.952 4.685M158.923 19.218h4.548c-.114-1.503-.807-2.19-2.161-2.19-1.242 0-2.112.655-2.387 2.19m2.903 4.492c.87 0 1.694-.24 2.58-.656l.469 1.247c-1 .512-2.017.752-3.179.752-2.902 0-4.45-1.918-4.45-4.7 0-3.053 1.823-4.669 4.064-4.669 2.29 0 3.758 1.44 3.758 4.206v.591h-6.242c.05 1.774.79 3.23 3 3.23M171.808 15.749v1.406h-.37c-1.001 0-1.92.448-2.694 1.104v6.522h-1.517v-8.84h1.517v.99c.806-.718 1.725-1.182 2.693-1.182h.371zM178.357 22.67v-2.013a4.418 4.418 0 0 0-1.969-.448c-.984 0-2.016.384-2.016 1.775 0 1.31.903 1.71 1.645 1.71.71 0 1.533-.32 2.34-1.023m1.515-3.005v5.115h-1.515v-.879c-.84.783-1.613 1.087-2.55 1.087-1.662 0-2.983-1.103-2.983-3.005 0-1.951 1.34-3.022 3.34-3.022.74 0 1.531.175 2.176.528-.017-1.391-.258-2.207-2.097-2.207h-1.193V15.94h1.435c2.985 0 3.387 1.614 3.387 3.725M188.371 22.67v-4.588c-.71-.59-1.5-.99-2.387-.99-1.694 0-2.58 1.135-2.58 3.277 0 2.142.886 3.293 2.58 3.293.887 0 1.677-.416 2.387-.991zm1.517-11.413V24.78h-1.517v-.799c-.757.639-1.645 1.072-2.58 1.072-2.323 0-3.969-1.536-3.969-4.685 0-3.133 1.646-4.685 3.968-4.685.936 0 1.824.448 2.581 1.088v-5.515h1.517zM199.45 20.369c0-1.902-.967-3.31-2.804-3.31-1.84 0-2.825 1.408-2.825 3.31 0 1.902.984 3.324 2.825 3.324 1.837 0 2.805-1.422 2.805-3.324m-7.21 0c0-2.59 1.468-4.685 4.405-4.685 2.934 0 4.385 2.095 4.385 4.685 0 2.605-1.45 4.684-4.385 4.684-2.937 0-4.405-2.079-4.405-4.684M207.965 15.749v1.406h-.37c-1.001 0-1.92.448-2.694 1.104v6.522h-1.517v-8.84h1.517v.99c.806-.718 1.724-1.182 2.694-1.182h.37zM118.856 30h1.746V4.01h-1.746z" mask="url(#d)"/>
        </g>
    </g>
</svg>
